<svg width="14" height="14" viewBox="0 0 14 14" fill="none" xmlns="http://www.w3.org/2000/svg">
<path d="M1.66667 5.33334C0.747667 5.33334 0 6.08101 0 7.00001C0 7.91901 0.747667 8.66668 1.66667 8.66668C2.58567 8.66668 3.33333 7.91901 3.33333 7.00001C3.33333 6.08101 2.58567 5.33334 1.66667 5.33334Z" fill="#181818"/>
<path d="M7.00016 5.33334C6.08116 5.33334 5.3335 6.08101 5.3335 7.00001C5.3335 7.91901 6.08116 8.66668 7.00016 8.66668C7.91916 8.66668 8.66683 7.91901 8.66683 7.00001C8.66683 6.08101 7.91916 5.33334 7.00016 5.33334Z" fill="#181818"/>
<path d="M12.3333 5.33334C11.4143 5.33334 10.6666 6.08101 10.6666 7.00001C10.6666 7.91901 11.4143 8.66668 12.3333 8.66668C13.2523 8.66668 14 7.91901 14 7.00001C14 6.08101 13.2523 5.33334 12.3333 5.33334Z" fill="#181818"/>
</svg>
