<svg width="18" height="18" viewBox="0 0 18 18" fill="none" xmlns="http://www.w3.org/2000/svg">
<g clip-path="url(#clip0)">
<path d="M9.00031 13.9092C6.28803 13.9092 4.09121 11.7123 4.09121 9.00006C4.09121 8.16962 4.29985 7.39233 4.65986 6.70506L3.4653 5.5105C2.83119 6.52503 2.45483 7.71549 2.45483 9.00006C2.45483 12.6164 5.38391 15.5455 9.00031 15.5455V18.0001L12.273 14.7273L9.00031 11.4546V13.9092Z" fill="black"/>
<path d="M9.00056 2.45455V0L5.72784 3.27272L9.00056 6.54543V4.09089C11.7128 4.09089 13.9097 6.28771 13.9097 8.99998C13.9097 9.83042 13.701 10.6077 13.341 11.295L14.5356 12.4895C15.1696 11.475 15.546 10.2846 15.546 8.99998C15.546 5.38363 12.6169 2.45455 9.00056 2.45455Z" fill="black"/>
</g>
<defs>
<clipPath id="clip0">
<rect width="18" height="18" fill="white"/>
</clipPath>
</defs>
</svg>
