<svg width="14" height="14" viewBox="0 0 14 14" fill="none" xmlns="http://www.w3.org/2000/svg">
<path d="M6.17129 1.29898C6.0557 1.24833 5.91929 1.27225 5.827 1.35989L2.55013 4.45471H0.318192C0.142317 4.45471 0 4.59703 0 4.77287V9.22741C0 9.40328 0.142317 9.5456 0.318192 9.5456H2.55013L5.82703 12.6404C5.88731 12.6976 5.96591 12.7274 6.04547 12.7274C6.08804 12.7274 6.13093 12.719 6.17132 12.7013C6.28816 12.6513 6.36366 12.5363 6.36366 12.4092V1.59107C6.36363 1.46397 6.28813 1.349 6.17129 1.29898Z" fill="#181818"/>
<path d="M7.82879 5.21681L7.37541 5.67019C7.27086 5.77474 7.24297 5.94366 7.33028 6.06298C7.52265 6.32605 7.63633 6.65009 7.63633 7.00017C7.63633 7.35025 7.52265 7.67429 7.33028 7.93732C7.24297 8.05664 7.27086 8.2256 7.37541 8.33015L7.82879 8.7835C7.96764 8.92238 8.19447 8.901 8.31441 8.74543C8.68713 8.26196 8.90906 7.65651 8.90906 7.00017C8.90906 6.3438 8.68713 5.73835 8.31441 5.25487C8.19447 5.09931 7.96764 5.07792 7.82879 5.21681Z" fill="#181818"/>
<path d="M10.0951 3.41783C9.97546 3.2827 9.76245 3.28324 9.63487 3.41085L9.18468 3.86104C9.06408 3.98161 9.06521 4.17111 9.17663 4.30016C9.80278 5.02522 10.1819 5.96924 10.1819 7.00015C10.1819 8.03106 9.80278 8.97508 9.17663 9.7002C9.06518 9.82925 9.06411 10.0187 9.18468 10.1393L9.63487 10.5895C9.76245 10.7171 9.97546 10.7176 10.0951 10.5825C10.9407 9.62775 11.4546 8.37285 11.4546 7.00018C11.4546 5.62748 10.9407 4.37258 10.0951 3.41783Z" fill="#181818"/>
<path d="M11.8949 1.61494C11.7732 1.4828 11.5623 1.48318 11.4353 1.61023L10.9845 2.06101C10.8636 2.18191 10.8642 2.37276 10.9795 2.49906C12.0646 3.68747 12.7272 5.2679 12.7272 7.0001C12.7272 8.7323 12.0646 10.3127 10.9795 11.5011C10.8642 11.6274 10.8636 11.8183 10.9845 11.9392L11.4353 12.3899C11.5623 12.517 11.7732 12.5174 11.895 12.3852C13.2012 10.9675 14 9.07531 14 7.0001C14 4.92486 13.2012 3.03268 11.8949 1.61494Z" fill="#181818"/>
</svg>
